<svg width="1729" height="1144" viewBox="0 0 1729 1144" fill="none" xmlns="http://www.w3.org/2000/svg">
<path d="M120.513 986.637C19.6485 979.578 -1.78135 934.673 0.111745 913.103L0.111745 643L1728.89 643V913.103C1730.78 934.673 1709.35 979.578 1608.49 986.637C1482.41 995.461 1485.81 1026.35 1466.51 1051.35C1447.2 1076.35 1416.53 1101.35 1308.62 1081.5C1200.71 1061.64 1095.08 1055.02 1014.43 1102.09C949.916 1139.74 887.463 1144 864.5 1144C841.537 1144 779.083 1139.74 714.567 1102.09C633.921 1055.02 528.286 1061.64 420.379 1081.5C312.473 1101.35 281.804 1076.35 262.495 1051.35C243.185 1026.35 246.593 995.461 120.513 986.637Z" fill="#59B5F7"/>
<path d="M2676.47 544.02C2856.7 585.392 2861.98 667.245 2842.09 703L2594.37 691.354L-32.4383 691.354L-339 197.561C-326.077 160.699 -252.488 91.3772 -61.5202 108.984C177.19 130.992 194.41 78.009 248.958 41.5695C303.506 5.13013 378.955 -27.9885 562.41 36.9803C745.866 101.949 935.209 143.974 1119.4 88.3331C1266.75 43.8208 1384.92 54.901 1427.17 61.6148C1469.43 68.3285 1581.1 93.767 1671.18 176.005C1783.78 278.802 1983.19 298.546 2196.85 296.674C2410.51 294.802 2447.92 345.853 2464.44 393.584C2480.95 441.314 2451.19 492.305 2676.47 544.02Z" fill="#59B5F7"/>
</svg>
