<svg width="1434" height="1710" viewBox="0 0 1434 1710" fill="none" xmlns="http://www.w3.org/2000/svg">
<path d="M467.097 743.872C381.084 644.293 422.061 559.637 453.301 529.756L897.886 53.2991L2537.3 1583.04L2092.71 2059.5C2065.06 2092.73 1983.44 2139.46 1878.15 2060.54C1746.54 1961.88 1707.62 2010.08 1655.18 2029.57C1602.73 2049.06 1539.52 2058.5 1464.3 1933.97C1389.07 1809.44 1297.93 1706.28 1157.21 1703.77C1044.63 1701.76 979.587 1652.74 957.811 1632.42C936.034 1612.1 882.632 1550.6 872.845 1438.43C860.611 1298.22 751.403 1214.43 621.972 1147.99C492.54 1081.55 497.587 1017.84 513.405 964.175C529.223 910.513 574.615 868.346 467.097 743.872Z" fill="black"/>
<path d="M467.097 743.872C381.084 644.293 422.061 559.637 453.301 529.756L897.886 53.2991L2537.3 1583.04L2092.71 2059.5C2065.06 2092.73 1983.44 2139.46 1878.15 2060.54C1746.54 1961.88 1707.62 2010.08 1655.18 2029.57C1602.73 2049.06 1539.52 2058.5 1464.3 1933.97C1389.07 1809.44 1297.93 1706.28 1157.21 1703.77C1044.63 1701.76 979.587 1652.74 957.811 1632.42C936.034 1612.1 882.632 1550.6 872.845 1438.43C860.611 1298.22 751.403 1214.43 621.972 1147.99C492.54 1081.55 497.587 1017.84 513.405 964.175C529.223 910.513 574.615 868.346 467.097 743.872Z" fill="url(#paint0_linear_776_2036)"/>
<path d="M586.178 9.61865C552.033 -117.458 625.75 -175.867 666.877 -189.187L1274.43 -424.865L2085.36 1665.63L1477.81 1901.31C1438.46 1919.21 1344.63 1925.79 1284.15 1808.93C1208.55 1662.85 1152.53 1689.32 1096.84 1684.06C1041.14 1678.81 980.112 1659.81 966.533 1514.96C952.955 1370.11 915.75 1237.58 790.127 1174.12C689.63 1123.35 652.378 1050.92 641.606 1023.15C630.835 995.38 609.496 916.773 649.467 811.512C699.431 679.936 637.534 556.988 549.88 440.872C462.226 324.755 494.48 269.577 532.062 228.135C569.645 186.693 628.858 168.465 586.178 9.61865Z" fill="black"/>
<path d="M586.178 9.61865C552.033 -117.458 625.75 -175.867 666.877 -189.187L1274.43 -424.865L2085.36 1665.63L1477.81 1901.31C1438.46 1919.21 1344.63 1925.79 1284.15 1808.93C1208.55 1662.85 1152.53 1689.32 1096.84 1684.06C1041.14 1678.81 980.112 1659.81 966.533 1514.96C952.955 1370.11 915.75 1237.58 790.127 1174.12C689.63 1123.35 652.378 1050.92 641.606 1023.15C630.835 995.38 609.496 916.773 649.467 811.512C699.431 679.936 637.534 556.988 549.88 440.872C462.226 324.755 494.48 269.577 532.062 228.135C569.645 186.693 628.858 168.465 586.178 9.61865Z" fill="url(#paint1_linear_776_2036)"/>
<path d="M816.873 566.802C769.66 456.777 834.844 389.976 873.337 370.328L1437.69 44.4959L2456.57 1809.23L2289.01 1979.53C2252.75 2003.04 2162.31 2026.09 2090.63 1930.19C2001.03 1810.32 1949.52 1844.69 1894.82 1849.99C1840.11 1855.3 1455.99 1955.2 1353.11 1865.21C1252.68 1777.36 1272.74 1630.06 1143.66 1594.82C1040.39 1566.63 996.196 1507.14 982.662 1483.7C969.129 1460.26 939.712 1392.24 966.929 1288.71C1000.95 1159.31 927.226 1058.1 829.225 967.809C731.225 877.521 756.475 821.202 788.418 776.477C820.362 731.753 875.889 704.333 816.873 566.802Z" fill="black"/>
<path d="M816.873 566.802C769.66 456.777 834.844 389.976 873.337 370.328L1437.69 44.4959L2456.57 1809.23L2289.01 1979.53C2252.75 2003.04 2162.31 2026.09 2090.63 1930.19C2001.03 1810.32 1949.52 1844.69 1894.82 1849.99C1840.11 1855.3 1455.99 1955.2 1353.11 1865.21C1252.68 1777.36 1272.74 1630.06 1143.66 1594.82C1040.39 1566.63 996.196 1507.14 982.662 1483.7C969.129 1460.26 939.712 1392.24 966.929 1288.71C1000.95 1159.31 927.226 1058.1 829.225 967.809C731.225 877.521 756.475 821.202 788.418 776.477C820.362 731.753 875.889 704.333 816.873 566.802Z" fill="url(#paint2_linear_776_2036)"/>
<path opacity="0.02" d="M336.153 881.947C214.19 792.807 238.132 687.518 265.348 646.016L639.421 -1.89581L2868.78 1285.23L2494.71 1933.14C2472.37 1977.46 2393.16 2050.84 2254.98 1989.78C2082.26 1913.47 2051.18 1977.45 1997.56 2012.81C1943.95 2048.17 1875.68 2075.08 1759.33 1955.24C1642.99 1835.4 1514.37 1743.59 1356.31 1777.17C1229.87 1804.03 1144.44 1766.02 1114.82 1748.92C1085.21 1731.83 1009.57 1676.84 969.618 1553.91C919.675 1400.24 775.851 1334.76 613.895 1293.92C451.939 1253.08 441.107 1180.51 444.922 1116.39C448.738 1052.28 488.605 993.372 336.153 881.947Z" fill="black"/>
<defs>
<linearGradient id="paint0_linear_776_2036" x1="-350.041" y1="261.47" x2="1641.03" y2="1866.73" gradientUnits="userSpaceOnUse">
<stop stop-color="#274AB3"/>
<stop offset="0.505208" stop-color="#59B5F7"/>
<stop offset="1" stop-color="#305CDE"/>
</linearGradient>
<linearGradient id="paint1_linear_776_2036" x1="703.718" y1="-88.3019" x2="1378.14" y2="2421.95" gradientUnits="userSpaceOnUse">
<stop stop-color="#274AB3"/>
<stop offset="0.505208" stop-color="#59B5F7"/>
<stop offset="1" stop-color="#305CDE"/>
</linearGradient>
<linearGradient id="paint2_linear_776_2036" x1="1388.13" y1="72.9581" x2="1738.02" y2="2569.1" gradientUnits="userSpaceOnUse">
<stop stop-color="#182E6F"/>
<stop offset="0.505208" stop-color="#274AB3"/>
<stop offset="1" stop-color="#59B5F7"/>
</linearGradient>
</defs>
</svg>
